<?xml version="1.0" standalone="no"?>
<!DOCTYPE svg PUBLIC "-//W3C//DTD SVG 20010904//EN"
 "http://www.w3.org/TR/2001/REC-SVG-20010904/DTD/svg10.dtd">
<svg version="1.0" xmlns="http://www.w3.org/2000/svg"
 width="1344.000000pt" height="768.000000pt" viewBox="0 0 1344.000000 768.000000"
 preserveAspectRatio="xMidYMid meet">

<g transform="translate(0.000000,768.000000) scale(0.100000,-0.100000)"
fill="#000000" stroke="none">
<path d="M5190 5162 c0 -4 4 -12 9 -17 4 -6 30 -50 56 -100 27 -49 72 -133
100 -185 29 -52 71 -131 95 -175 23 -44 46 -84 51 -89 5 -6 9 -14 9 -18 0 -4
-162 -8 -359 -8 -346 0 -360 1 -366 19 -19 62 -85 104 -161 104 -66 0 -115
-29 -150 -89 -22 -38 -26 -54 -22 -100 14 -165 232 -224 318 -84 l25 39 391 1
390 0 47 -87 c26 -49 63 -117 83 -153 20 -36 55 -101 78 -145 24 -44 64 -119
89 -166 26 -48 47 -91 47 -98 0 -8 -109 -12 -387 -13 l-388 -3 -3 -47 -3 -48
424 0 424 0 25 -47 c59 -110 88 -163 137 -252 28 -51 48 -98 44 -104 -4 -6
-95 -8 -272 -5 -147 3 -317 3 -379 0 l-112 -5 0 -48 0 -49 418 0 417 0 30 -58
c16 -31 51 -97 78 -145 53 -96 95 -176 262 -490 61 -113 112 -207 115 -207 3
0 33 51 67 113 34 61 96 175 139 252 42 77 109 201 149 276 40 75 88 163 106
197 l34 62 305 2 305 3 3 53 3 52 -275 0 c-220 0 -276 3 -276 13 0 7 4 17 9
23 5 5 23 36 41 69 36 67 124 224 151 270 10 17 38 68 62 115 24 47 60 114 79
150 20 36 47 85 60 110 14 25 51 92 83 150 32 58 76 139 98 180 22 41 48 84
58 95 10 11 32 50 48 85 17 36 47 94 67 130 85 153 254 469 254 476 0 2 -77 3
-172 2 l-172 -3 -31 -60 c-30 -58 -186 -344 -370 -680 -130 -238 -144 -264
-185 -335 -20 -36 -85 -153 -142 -260 -120 -222 -153 -283 -178 -325 -10 -16
-33 -59 -52 -95 -19 -36 -79 -147 -134 -248 -54 -101 -105 -194 -112 -207 -7
-14 -17 -25 -22 -25 -5 0 -32 44 -61 98 -95 177 -121 227 -144 267 -12 22 -44
81 -70 130 -26 50 -66 124 -88 165 -22 41 -52 98 -67 125 -119 216 -303 555
-370 680 -29 55 -63 118 -75 140 -12 22 -38 69 -57 105 -19 36 -82 153 -141
260 -58 107 -113 212 -123 233 l-18 37 -173 0 c-95 0 -173 -4 -173 -8z m-532
-568 c25 -7 52 -51 52 -84 0 -33 -44 -70 -84 -70 -69 0 -104 97 -50 139 28 22
44 25 82 15z"/>
<path d="M5710 5160 c0 -6 29 -63 64 -128 122 -224 303 -558 389 -715 48 -86
87 -159 87 -162 0 -2 15 -30 34 -62 18 -32 47 -83 63 -113 130 -240 353 -654
373 -692 14 -27 28 -48 31 -48 3 0 17 21 31 48 41 77 90 168 183 337 48 88
100 183 115 210 15 28 53 97 85 155 32 58 96 175 143 260 92 169 111 204 197
360 32 58 76 139 98 180 22 41 51 92 64 112 12 21 23 39 23 42 0 2 27 52 60
111 33 59 60 109 60 111 0 2 -78 4 -173 4 l-173 0 -52 -97 c-54 -102 -81 -150
-178 -324 -31 -57 -87 -160 -124 -229 -37 -69 -113 -206 -169 -304 -55 -99
-101 -181 -101 -184 0 -11 -82 -142 -90 -142 -8 0 -25 30 -143 250 -22 41 -65
120 -95 175 -192 351 -229 419 -270 495 -126 238 -164 307 -177 330 -14 25
-14 25 -184 28 -113 2 -171 -1 -171 -8z"/>
<path d="M5227 3366 c-48 -18 -62 -29 -81 -70 -70 -148 124 -279 228 -155 91
108 -16 272 -147 225z m85 -93 c37 -33 13 -95 -37 -95 -49 0 -72 56 -38 94 20
22 51 23 75 1z"/>
<path d="M7977 3365 c-21 -7 -39 -15 -40 -17 -1 -1 -10 -13 -20 -25 -26 -30
-37 -87 -26 -128 5 -18 25 -47 45 -64 60 -53 156 -39 204 30 18 25 22 40 18
85 -5 57 -23 86 -68 109 -43 21 -74 24 -113 10z m90 -101 c15 -24 15 -29 2
-53 -27 -48 -99 -33 -99 21 0 55 67 77 97 32z"/>
</g>
</svg>
